<svg xmlns="http://www.w3.org/2000/svg" width="245" height="40" viewBox="0 0 245 40">
    <g fill="none" fill-rule="evenodd">
        <path fill="#364FC7" d="M36.6047491 11.2098592c.6658151-.3239844 1.7241499-.3241089 2.3795245 0l34.722877 13.5022089c1.0112207.3239844 1.3037296.8491423.6376602 1.1732512l-35.1684123 13.502209c-1.0219113.3239844-2.6819481.3241089-3.693559 0L.75996248 25.8853193c-.65512444-.3239844-.34593137-.8491423.67637425-1.1732512L36.6047491 11.2098592z"/>
        <path fill="#3B5BDB" fill-opacity=".9" d="M36.6047491 7.57349552c.6658151-.32398438 1.7241499-.3241089 2.3795245 0l34.722877 13.50220898c1.0112207.3239843 1.3037296.8491423.6376602 1.1732512L39.1763985 35.7511646c-1.0219113.3239844-2.6819481.3241089-3.693559 0L.75996248 22.2489557c-.65512444-.3239844-.34593137-.8491423.67637425-1.1732512L36.6047491 7.57349552z"/>
        <path fill="#4263EB" fill-opacity=".9" d="M36.6047491 3.93713188c.6658151-.32398438 1.7241499-.3241089 2.3795245 0l34.722877 13.50220892c1.0112207.3239844 1.3037296.8491424.6376602 1.1732513L39.1763985 32.114801c-1.0219113.3239844-2.6819481.3241089-3.693559 0L.75996248 18.6125921c-.65512444-.3239844-.34593137-.8491424.67637425-1.1732513L36.6047491 3.93713188z"/>
        <path fill="#4C6EF5" fill-opacity=".9" d="M36.6047491.30076825c.6658151-.32398438 1.7241499-.3241089 2.3795245 0l34.722877 13.50220895c1.0112207.3239844 1.3037296.8491423.6376602 1.1732512l-35.1684123 13.502209c-1.0219113.3239843-2.6819481.3241089-3.693559 0L.75996248 14.9762284c-.65512444-.3239844-.34593137-.8491423.67637425-1.1732512L36.6047491.30076825z"/>
        <path fill="#F8F9FA" d="M40.364 8.421l-8.839 7.95 20.486-3.402 3.317 1.19-18.072 6.955-2.568-.917 7.495-2.708 7.673-2.838L28.808 18l-1.798-.703 9.33-7.896-7.187 3-7.495 2.709-2.13-.918L37.6 7.237"/>
        <path fill="#364FC7" d="M94.887 10.938l5.578 13.921 5.578-13.921h2.918V28h-2.25v-6.645l.211-7.171L101.32 28h-1.722l-5.59-13.781.222 7.136V28h-2.25V10.938"/>
        <path fill="#363C44" d="M112.0195312 21.5429688c0-1.2421938.2441382-2.3593701.7324219-3.35156255.4882837-.99219246 1.1679644-1.7578098 2.0390625-2.296875s1.8652288-.80859375 2.9824219-.80859375c1.7265711 0 3.1230415.59765027 4.1894531 1.79296875S123.5625 19.6640526 123.5625 21.6484375v.1523437c0 1.2343812-.2363258 2.341792-.7089844 3.3222657-.4726586.9804736-1.1484331 1.7441379-2.0273437 2.2910156-.8789107.5468777-1.8886662.8203125-3.0292969.8203125-1.7187586 0-3.1113228-.5976503-4.1777344-1.7929688-1.0664116-1.1953184-1.5996094-2.7773339-1.5996094-4.7460937v-.1523437zm2.1796876.2578124c0 1.4062571.3261686 2.535152.9785156 3.3867188.652347.8515668 1.5253851 1.2773438 2.6191406 1.2773438 1.101568 0 1.9765593-.4316364 2.625-1.2949219.6484407-.8632856.9726562-2.0722579.9726562-3.6269531 0-1.390632-.3300748-2.5175739-.9902343-3.38085942-.6601596-.86328557-1.5371039-1.29492188-2.6308594-1.29492188-1.0703179 0-1.9335905.425777-2.5898437 1.27734375-.6562533.85156676-.984375 2.07030455-.984375 3.65624995zm17.6484374-5.7539062c1.593758 0 2.8691359.5331978 3.8261719 1.59960938.9570361 1.06641158 1.4355469 2.47069442 1.4355469 4.21289062v.1992188c0 1.1953184-.2304664 2.2636671-.6914062 3.2050781-.4609399.9414109-1.1230426 1.6718724-1.9863282 2.1914062-.8632855.5195339-1.8574162.7792969-2.9824218.7792969-1.7031336 0-3.0742136-.5683537-4.1132813-1.7050781-1.0390677-1.1367245-1.5585937-2.6620998-1.5585937-4.5761719v-1.0546875c0-2.66407582.4941356-4.78124215 1.4824218-6.3515625.9882862-1.57032035 2.447256-2.52734203 4.3769532-2.87109375 1.0937554-.19531348 1.8320293-.43359234 2.2148437-.71484375.3828144-.2812514.5742187-.6679663.5742187-1.16015625h1.78125c0 .97656738-.2207009 1.73827852-.6621093 2.28515625-.4414085.54687773-1.1464796.93359262-2.1152344 1.16015625L131.8125 13.609375c-1.2890689.30468902-2.2558562.81835576-2.9003906 1.54101562-.6445345.72265987-1.0644522 1.68554086-1.2597656 2.88867188 1.1484432-1.32813164 2.5468667-1.9921875 4.1953124-1.9921875zm-.421875 1.78125c-1.0625053 0-1.9062468.3574183-2.53125 1.07226562-.6250031.71484728-.9375 1.70507178-.9375 2.97070318v.1875c0 1.3593817.31445 2.4355429.9433594 3.2285156s1.4785103 1.1894531 2.5488282 1.1894531c1.0781303 0 1.9296843-.3984335 2.5546874-1.1953125.6250032-.796879.9375-1.9609298.9375-3.4921875 0-1.1953185-.3144499-2.1542933-.9433593-2.87695312-.6289094-.72265987-1.4863227-1.08398438-2.5722657-1.08398438zM147.75 15.3203125h2.1679688V28H147.75v-9.24609375L141.9023438 28h-2.1679688V15.3203125h2.1679688v9.2578125L147.75 15.3203125zm16.0429688 0V28h-2.1796876V17.11328125h-4.3125l-.2578124 4.74609375c-.1406258 2.1796984-.5058565 3.7382766-1.0957032 4.6757812-.5898467.9375047-1.5253842 1.4257811-2.8066406 1.4648438h-.8671875v-1.9101562l.6210937-.046875c.7031286-.0781254 1.2070298-.4843714 1.5117188-1.21875.304689-.7343787.4999996-2.0937401.5859375-4.078125l.234375-5.4257813h8.5664063zm11.6835937 0h2.1679687V28h-2.1679687v-9.24609375L169.6289062 28h-2.1679687V15.3203125h2.1679687v9.2578125l5.8476563-9.2578125zm12.6210937 3.46875c0-.59375297-.2265602-1.0644514-.6796874-1.41210938-.4531273-.34765798-1.0742149-.52148437-1.8632813-.52148437-.7656288 0-1.4042943.19921676-1.9160156.59765625-.5117213.3984395-.7675781.8671848-.7675781 1.40625h-2.15625c0-1.101568.4609328-2.00390273 1.3828124-2.70703125.9218797-.70312852 2.0742119-1.0546875 3.4570313-1.0546875 1.4843824 0 2.6406209.3183562 3.46875.95507813s1.2421875 1.54491597 1.2421875 2.72460937c0 .57031535-.1718733 1.09374765-.515625 1.57031245-.3437517.4765649-.8320281.8554674-1.4648438 1.1367188C189.7617261 21.9843775 190.5 22.9687427 190.5 24.4375c0 1.1640683-.4492143 2.0859341-1.3476562 2.765625-.898442.6796909-2.0976488 1.0195312-3.5976563 1.0195312-1.4609448 0-2.6660109-.3574183-3.6152344-1.0722656S180.515625 25.4687561 180.515625 24.25h2.15625c0 .6171906.2753879 1.1464822.8261719 1.5878906.550784.4414085 1.236324.6621094 2.0566406.6621094.8281291 0 1.4960912-.1914043 2.0039063-.5742188.507815-.3828144.7617187-.8789032.7617187-1.4882812 0-.7109411-.2128885-1.2207016-.6386719-1.5292969-.4257834-.3085953-1.0878861-.4628906-1.9863281-.4628906h-2.1679687v-1.828125h2.3554687c1.4765699-.0390627 2.2148437-.6484316 2.2148437-1.828125zM201.140625 28c-.125001-.2500013-.226562-.6953093-.304687-1.3359375-1.007818 1.0468802-2.210931 1.5703125-3.609376 1.5703125-1.250006 0-2.275386-.3535121-3.076171-1.0605469-.800786-.7070348-1.201172-1.6035102-1.201172-2.6894531 0-1.3203191.501948-2.3456995 1.505859-3.0761719s2.416007-1.0957031 4.236328-1.0957031h2.109375v-.9960938c0-.75781624-.22656-1.36132583-.679687-1.81054682-.453128-.449221-1.12109-.67382813-2.003906-.67382813-.773442 0-1.421873.19531055-1.945313.5859375-.52344.39062695-.785156.86327848-.785156 1.41796875h-2.179688c0-.63281566.224607-1.24413768.673828-1.83398438.449221-.5898467 1.05859-1.0566389 1.828125-1.40039062.769535-.34375172 1.61523-.515625 2.53711-.515625 1.460945 0 2.605464.36523072 3.433594 1.09570313.828129.7304724 1.257812 1.7363217 1.289062 3.01757817v5.8359374c0 1.1640684.148436 2.0898404.445312 2.7773438V28h-2.273437zm-3.597656-1.6523438c.679691 0 1.324215-.1757794 1.933593-.5273437.609379-.3515643 1.05078-.8085909 1.324219-1.3710938v-2.6015625h-1.699219c-2.656263 0-3.984374.777336-3.984374 2.3320313 0 .6796909.22656 1.2109356.679687 1.59375.453127.3828144 1.035153.5742187 1.746094.5742187zm9.011719-11.0273437h2.179687v10.9101563h5.835937V15.3203125h2.167969v10.9101563H218.25l-.210938 5.53125h-1.945312V28h-9.539062V15.3203125zm22.230468 0h2.167969V28h-2.167969v-9.24609375L222.9375 28h-2.167969V15.3203125h2.167969v9.2578125l5.847656-9.2578125zm15.339844 0V28h-2.179688v-4.9335938h-3.269531L235.6875 28h-2.34375l3.1875-5.2617188c-.812504-.2968764-1.435545-.7558562-1.869141-1.3769531-.433596-.6210968-.65039-1.345699-.65039-2.1738281 0-1.15625578.433589-2.0878871 1.300781-2.79492188.867192-.70703478 2.027336-1.06445308 3.480469-1.07226562H244.125zm-7.933594 3.890625c0 .6171906.210936 1.1152325.632813 1.4941406.421877.3789082.980465.5722656 1.675781.5800781h3.445312V17.078125h-3.117187c-.804692 0-1.44531.19726365-1.921875.59179688-.476565.39453322-.714844.90819996-.714844 1.54101562z"/>
    </g>
</svg>
